#!OML:ASF E:\Steps\Project 1\Capture day 1\Session 2\Subject.ASF
:FULLY-SPECIFIED
:DEGREES
4197
root 12.4313 16.6741 6.1771 21.2631 -2.76963 -6.8347
lowerback -17.7955 -0.624028 -5.90111
upperback 2.65536 0.367653 1.00184
thorax 13.0093 -0.32276 4.59321
lowerneck 1.58441 -1.25147 -3.12985
upperneck 21.3512 -2.64396 5.84933
head 6.30984 -1.12832 2.27304
rclavicle 1.86858e-014 -3.18055e-015
rhumerus -38.655 0.617481 -80.5921
rradius 44.7269
rwrist 2.52743
rhand -1.77769 -786.064
rfingers 7.12502
rthumb 23.8866 -625.401
lclavicle 1.86858e-014 -3.18055e-015
lhumerus -27.4014 -4.41128 81.2147
lradius 31.5375
lwrist -0.170045
lhand -18.439 -10.6097
lfingers 7.12502
lthumb 7.84661 -340.775
rfemur -49.9675 -0.647192 12.3624
rtibia 63.7248
rfoot 2.93948 -15.4627
rtoes -10.9838
lfemur -23.368 -7.9247 -14.9886
ltibia 10.8956
lfoot 354.402 4.24416
ltoes -6.37475
4198
root 12.4234 16.6676 6.1953 21.3819 -2.64172 -6.81946
lowerback -18.4144 -0.621385 -5.83507
upperback 2.81614 0.400812 0.998805
thorax 13.5602 -0.326893 4.57541
lowerneck 1.41668 -1.30514 -3.42126
upperneck 21.1483 -2.76387 6.26091
head 6.28614 -1.17835 2.44653
rclavicle -6.36111e-015 -6.36111e-015
rhumerus -38.4286 0.792556 -80.7572
rradius 44.6679
rwrist 2.30426
rhand -1.58669 -785.926
rfingers 7.12502
rthumb 24.0698 -625.564
lclavicle -6.36111e-015 -6.36111e-015
lhumerus -27.02 -4.32156 81.1321
lradius 31.3162
lwrist -0.270479
lhand -18.1231 -10.6509
lfingers 7.12502
lthumb 8.1515 -340.828
rfemur -50.114 -1.17201 12.9551
rtibia 64.9778
rfoot 4.94676 -13.5339
rtoes -12.5961
lfemur -23.3987 -7.82064 -15.0674
ltibia 10.9246
lfoot 354.416 4.03397
ltoes -9.92169
4199
root 12.4133 16.6607 6.21143 21.4181 -2.61681 -6.74323
lowerback -18.9956 -0.599804 -5.86781
upperback 3.01538 0.486619 0.955097
thorax 14.1313 -0.314334 4.58459
lowerneck 1.47584 -1.21888 -3.51853
upperneck 20.7837 -2.66212 6.4825
head 6.15657 -1.12565 2.53641
rclavicle -7.95139e-016 2.14687e-014
rhumerus -38.2529 0.763555 -80.9087
rradius 44.7651
rwrist 2.36447
rhand -1.53116 -785.964
rfingers 7.12502
rthumb 24.123 -625.533
lclavicle -7.95139e-016 2.14687e-014
lhumerus -26.5603 -4.27059 80.9969
lradius 31.0696
lwrist -0.473445
lhand -17.9251 -10.3683
lfingers 7.12502
lthumb 8.34259 -340.553
rfemur -50.2422 -1.73796 13.5539
rtibia 66.1936
rfoot 6.95135 -11.7042
rtoes -14.1704
lfemur -23.3157 -7.82131 -15.1746
ltibia 10.8219
lfoot 354.492 3.97441
ltoes -9.00881
4200
root 12.4009 16.6626 6.20703 21.233 -2.5875 -6.6715
lowerback -18.759 -0.551478 -5.97824
upperback 3.00168 0.563966 0.940878
thorax 13.9642 -0.280213 4.65006
lowerneck 1.99322 -1.04702 -3.52707
upperneck 20.3155 -2.42768 6.57376
head 5.90706 -1.02081 2.57658
rclavicle -3.97569e-016 -1.59028e-014
rhumerus -38.3849 0.67394 -80.9794
rradius 44.8152
rwrist 2.64915
rhand -1.80027 -785.824
rfingers 7.12502
rthumb 23.865 -625.639
lclavicle -3.97569e-016 -1.59028e-014
lhumerus -26.5141 -4.31983 80.9517
lradius 30.8599
lwrist -0.596643
lhand -18.0147 -10.3029
lfingers 7.12502
lthumb 8.25611 -340.484
rfemur -50.2995 -2.26118 14.2349
rtibia 67.4523
rfoot 8.83623 -10.1692
rtoes -16.2077
lfemur -23.2276 -7.7159 -15.2404
ltibia 10.9577
lfoot 354.531 3.85889
ltoes -11.3411
4201
root 12.3867 16.6676 6.18947 21.1447 -2.60894 -6.55666
lowerback -18.2389 -0.517078 -6.19901
upperback 2.80791 0.620242 0.946744
thorax 13.4189 -0.245685 4.78569
lowerneck 1.87322 -1.15339 -3.2337
upperneck 20.4267 -2.54718 6.34031
head 5.96501 -1.06858 2.44666
rclavicle 5.56597e-015 1.66979e-014
rhumerus -38.628 0.787802 -81.0293
rradius 44.8735
rwrist 2.52629
rhand -1.46054 -786.154
rfingers 7.12502
rthumb 24.1907 -625.351
lclavicle 5.56597e-015 1.66979e-014
lhumerus -26.6487 -4.228 80.931
lradius 30.5841
lwrist -0.719614
lhand -18.0894 -10.5746
lfingers 7.12502
lthumb 8.18407 -340.753
rfemur -50.6328 -2.74663 14.8875
rtibia 68.8137
rfoot 10.5745 -8.95081
rtoes -15.9133
lfemur -23.3938 -7.6049 -15.2738
ltibia 11.252
lfoot 354.433 3.74793
ltoes -12.7889
4202
root 12.3727 16.6679 6.18355 21.2145 -2.69653 -6.32779
lowerback -18.1725 -0.52441 -6.50101
upperback 2.70978 0.680698 0.883288
thorax 13.2573 -0.228778 4.90134
lowerneck 1.38599 -1.09454 -2.70632
upperneck 20.6264 -2.3786 5.69195
head 6.09397 -0.980306 2.15587
rclavicle 8.34896e-015 -3.97569e-015
rhumerus -38.6942 0.866558 -81.1231
rradius 45.0472
rwrist 2.21749
rhand -0.940782 -786.812
rfingers 7.12502
rthumb 24.689 -624.761
lclavicle 8.34896e-015 -3.97569e-015
lhumerus -26.6374 -4.09659 80.7964
lradius 30.3235
lwrist -0.875793
lhand -18.1634 -10.5785
lfingers 7.12502
lthumb 8.11262 -340.754
rfemur -51.1139 -3.37131 15.4575
rtibia 69.995
rfoot 12.5886 -7.68303
rtoes -16.4243
lfemur -23.6145 -7.53311 -15.4536
ltibia 11.4699
lfoot 354.308 3.68524
ltoes -12.8039
